
<svg viewBox="0 0 500 180" xmlns="http://www.w3.org/2000/svg" style="background-color:#FFFFFF">
  <polygon points="50,50 50,130 100,130 100,50" fill="#FFFFFF" style="stroke:#000000;stroke-width:2" />
  <polygon points="100,50 100,130 150,130 150,50" fill="#78B4F0" style="stroke:#000000;stroke-width:2" />
  <polygon points="150,50 150,130 200,130 200,50" fill="#F0B478" style="stroke:#000000;stroke-width:2" />
  <polygon points="200,50 200,130 250,130 250,50" fill="#F6D32D" style="stroke:#000000;stroke-width:2" />
  <polygon points="400,50 400,130 450,130 450,50" fill="#DC8ADD" style="stroke:#000000;stroke-width:2" />
  <polygon points="250,50 250,130 320,130 370,50" fill="#CDAB8F" style="stroke:#000000;stroke-width:2" />
  <polygon points="380,50 330,130 400,130 400,50" fill="#CDAB8F" style="stroke:#000000;stroke-width:2" />
  <text x="75" y="90" fill="#000000" dominant-baseline="middle" text-anchor="middle" font-size="16">0x0D</text>
  <text x="125" y="90" fill="#000000" dominant-baseline="middle" text-anchor="middle" font-size="16">Addrs</text>
  <text x="175" y="90" fill="#000000" dominant-baseline="middle" text-anchor="middle" font-size="16">Cmd</text>
  <text x="225" y="90" fill="#000000" dominant-baseline="middle" text-anchor="middle" font-size="16">Len</text>
  <text x="297.5" y="90" fill="#000000" dominant-baseline="middle" text-anchor="middle" font-size="16">Payload</text>
  <text x="425" y="90" fill="#000000" dominant-baseline="middle" text-anchor="middle" font-size="16">CRC</text>
  <text x="75" y="40" fill="#000000" dominant-baseline="auto" text-anchor="middle" font-size="16">0</text>
  <text x="125" y="40" fill="#000000" dominant-baseline="auto" text-anchor="middle" font-size="16">1</text>
  <text x="175" y="40" fill="#000000" dominant-baseline="auto" text-anchor="middle" font-size="16">2</text>
  <text x="225" y="40" fill="#000000" dominant-baseline="auto" text-anchor="middle" font-size="16">3</text>
  <text x="275" y="40" fill="#000000" dominant-baseline="auto" text-anchor="middle" font-size="16">4</text>
  <text x="425" y="40" fill="#000000" dominant-baseline="auto" text-anchor="middle" font-size="16">4+N</text>
  <text x="425" y="150" fill="#000000" dominant-baseline="hanging" text-anchor="middle" font-size="16">1</text>
  <text x="325" y="150" fill="#000000" dominant-baseline="hanging" text-anchor="middle" font-size="16">N</text>
  <text x="225" y="150" fill="#000000" dominant-baseline="hanging" text-anchor="middle" font-size="16">1</text>
  <text x="175" y="150" fill="#000000" dominant-baseline="hanging" text-anchor="middle" font-size="16">1</text>
  <text x="125" y="150" fill="#000000" dominant-baseline="hanging" text-anchor="middle" font-size="16">1</text>
  <text x="75" y="150" fill="#000000" dominant-baseline="hanging" text-anchor="middle" font-size="16">1</text>
  <line x1="400" y1="145" x2="450" y2="145" style="stroke:#000000;stroke-width:2" />
  <line x1="400" y1="140" x2="400" y2="150" style="stroke:#000000;stroke-width:2" />
  <line x1="450" y1="140" x2="450" y2="150" style="stroke:#000000;stroke-width:2" />
  <line x1="250" y1="145" x2="400" y2="145" style="stroke:#000000;stroke-width:2" />
  <line x1="250" y1="140" x2="250" y2="150" style="stroke:#000000;stroke-width:2" />
  <line x1="400" y1="140" x2="400" y2="150" style="stroke:#000000;stroke-width:2" />
  <line x1="200" y1="145" x2="250" y2="145" style="stroke:#000000;stroke-width:2" />
  <line x1="200" y1="140" x2="200" y2="150" style="stroke:#000000;stroke-width:2" />
  <line x1="250" y1="140" x2="250" y2="150" style="stroke:#000000;stroke-width:2" />
  <line x1="150" y1="145" x2="200" y2="145" style="stroke:#000000;stroke-width:2" />
  <line x1="150" y1="140" x2="150" y2="150" style="stroke:#000000;stroke-width:2" />
  <line x1="200" y1="140" x2="200" y2="150" style="stroke:#000000;stroke-width:2" />
  <line x1="100" y1="145" x2="150" y2="145" style="stroke:#000000;stroke-width:2" />
  <line x1="100" y1="140" x2="100" y2="150" style="stroke:#000000;stroke-width:2" />
  <line x1="150" y1="140" x2="150" y2="150" style="stroke:#000000;stroke-width:2" />
  <line x1="50" y1="145" x2="100" y2="145" style="stroke:#000000;stroke-width:2" />
  <line x1="50" y1="140" x2="50" y2="150" style="stroke:#000000;stroke-width:2" />
  <line x1="100" y1="140" x2="100" y2="150" style="stroke:#000000;stroke-width:2" />
  <polygon points="40,90 30,100 30,80" fill="#000000" />
</svg>